<svg xmlns="http://www.w3.org/2000/svg" viewBox="0 0 405.08 411.71"><defs><style>.cls-1{isolation:isolate;}.cls-12,.cls-2{fill:#e6e6e6;}.cls-3{fill:#e4b58c;}.cls-12,.cls-4,.cls-8{mix-blend-mode:multiply;}.cls-5{fill:#af6890;}.cls-6{fill:#ccc;}.cls-7{fill:#3d112b;}.cls-8{fill:#6d432c;opacity:0.2;}.cls-9{fill:#a58265;}.cls-10{fill:#cca07f;}.cls-11{fill:#543466;}.cls-13{fill:#f9ba2b;}.cls-14,.cls-15,.cls-18{fill:none;stroke-linecap:round;}.cls-14,.cls-15{stroke:#815c9e;stroke-linejoin:round;stroke-width:1.08px;}.cls-15{stroke-dasharray:5.22 5.22;}.cls-16{fill:#b3b3b3;}.cls-17{fill:#894c70;}.cls-18{stroke:#f9ba2b;stroke-miterlimit:10;stroke-width:2.16px;stroke-dasharray:8.64;}.cls-19{fill:#3e4b5e;}.cls-20{fill:#4b5a6a;}.cls-21{fill:#fff;}.cls-22{fill:#d7e1ed;}.cls-23{fill:#5a5a65;}.cls-24{fill:#383940;}</style></defs><g class="cls-1"><g id="Capa_2" data-name="Capa 2"><g id="OBJECTS"><ellipse class="cls-2" cx="202.54" cy="386.63" rx="146.97" ry="25.08"/><path class="cls-3" d="M252.26,233.52c3.79.72,6.85,3.5,9.23,6.53,4.85,6.16,7.68,13.73,9.14,21.44s1.59,15.6,1.51,23.45c-.17,15-1.16,30-2.22,45-.16,2.3-.45,4.86-2.19,6.36a8.42,8.42,0,0,1-4.38,1.55,89.76,89.76,0,0,1-14.09.94,5.84,5.84,0,0,1-2.78-.51c-1.88-1-2.09-3.61-2-5.76.28-14,1.28-27.89,1.84-41.83.57-14.37.63-29-3.66-42.75-.91-2.9-2-6-.9-8.88.85-2.17,2.83-3.65,4.72-5,1.7-1.23,4.33-2.38,5.64-.73Z"/><g class="cls-4"><path class="cls-2" d="M258.19,338.58a8.36,8.36,0,0,0,4.37-1.55c1.75-1.5,2-4.06,2.2-6.36,1.06-15,2.05-30,2.22-45,.08-7.85-.06-15.74-1.51-23.45s-4.29-15.27-9.14-21.44c-2.36-3-5.39-5.75-9.13-6.5,1.65-1,3.75-1.65,4.88-.23l.18.2c3.79.72,6.85,3.5,9.23,6.53,4.85,6.17,7.68,13.73,9.14,21.44s1.59,15.6,1.51,23.45c-.17,15-1.16,30-2.22,45-.16,2.3-.45,4.86-2.19,6.36a8.42,8.42,0,0,1-4.38,1.55,89.76,89.76,0,0,1-14.09.94c-.36,0-.72,0-1.09,0A88.57,88.57,0,0,0,258.19,338.58Z"/></g><path class="cls-3" d="M163.08,233.37c-3.78.72-6.85,3.5-9.23,6.52-4.85,6.17-7.68,13.74-9.14,21.45s-1.59,15.6-1.5,23.44c.17,15,1.16,30,2.21,45,.16,2.3.45,4.86,2.2,6.36a8.36,8.36,0,0,0,4.38,1.55,90.85,90.85,0,0,0,14.08.94,5.82,5.82,0,0,0,2.78-.51c1.88-1,2.09-3.62,2-5.76-.28-14-1.28-27.89-1.83-41.84-.57-14.36-.63-29,3.66-42.75.9-2.9,2-6,.89-8.88-.85-2.16-2.83-3.65-4.72-5-1.7-1.24-4.32-2.38-5.64-.74Z"/><g class="cls-4"><path class="cls-2" d="M157.16,338.43a8.36,8.36,0,0,1-4.38-1.55c-1.75-1.5-2-4.06-2.2-6.36-1.05-15-2-30-2.21-45-.09-7.84,0-15.73,1.51-23.44s4.28-15.28,9.13-21.44c2.36-3,5.4-5.76,9.13-6.5-1.65-1-3.75-1.65-4.88-.23l-.18.2c-3.78.72-6.85,3.5-9.23,6.53-4.85,6.16-7.68,13.73-9.14,21.44s-1.59,15.6-1.5,23.44c.17,15,1.16,30,2.21,45,.16,2.3.45,4.86,2.2,6.36a8.36,8.36,0,0,0,4.38,1.55,90.85,90.85,0,0,0,14.08.94c.36,0,.73,0,1.09-.05A93,93,0,0,1,157.16,338.43Z"/></g><path class="cls-5" d="M282.34,244.34c-6.38-1.14-11.72-5.32-17-9.05A157.68,157.68,0,0,0,228,216c-2.69-1-5.67,0-8.33.63-2.35.58-5.24,1.39-6.82,3.37-3,3.79-4.15,8.73-4.8,13.53-.16,1.24-.29,2.48-.41,3.73-.12-1.3-.26-2.59-.43-3.89-.65-4.8-1.78-9.73-4.8-13.52s-13.75-4.43-13.75-4.43A154.58,154.58,0,0,0,150,235.14c-5.3,3.73-10.63,7.91-17,9.05a8,8,0,0,0,4.58,8.15c1.78.77,3.78.85,5.6,1.52s3.58,2.29,3.36,4.21c-.14,1.29-1.14,2.44-1,3.72.24,1.74,2.38,2.43,4.14,2.53a22.37,22.37,0,0,0,9.9-1.69c-2.19,1.44-1.69,5.07.3,6.79s4.77,2.06,7.38,2.32a48.82,48.82,0,0,0,.83,13.05s-8.77,31.11-14.68,46c4.76,1.33,8.86,4.27,13.11,6.77a78,78,0,0,0,21,8.5l-1.23,6.4,27.06,4.32,12.91-10.22a78.05,78.05,0,0,0,22.47-8.84c4.26-2.5,8.36-5.45,13.11-6.78-5.91-14.91-14.68-46-14.68-46a49.34,49.34,0,0,0,.84-13.06c2.61-.26,5.4-.6,7.38-2.32s2.48-5.34.29-6.79a22.25,22.25,0,0,0,9.9,1.69c1.76-.1,3.9-.79,4.14-2.53.18-1.28-.82-2.43-1-3.72-.21-1.92,1.54-3.54,3.36-4.21s3.83-.74,5.61-1.51A8,8,0,0,0,282.34,244.34Z"/><g class="cls-4"><path class="cls-2" d="M153.47,330.84v0l.1,0Z"/><path class="cls-2" d="M282.34,244.4a27.07,27.07,0,0,1-9.21-3.74,8,8,0,0,1-4.62,7.44c-1.78.77-3.78.85-5.6,1.51s-3.58,2.29-3.36,4.21c.14,1.29,1.14,2.44,1,3.72-.24,1.74-2.39,2.43-4.14,2.53a22.3,22.3,0,0,1-9.91-1.69c2.19,1.45,1.69,5.07-.29,6.79s-4.77,2.06-7.38,2.32a48.92,48.92,0,0,1-.83,13.06s8.77,31.1,14.68,46c-4.76,1.33-8.86,4.28-13.11,6.78a78.11,78.11,0,0,1-22.48,8.84l-12.9,10.22-17.26-2.75-.56,2.89,27.06,4.31,12.91-10.21a77.79,77.79,0,0,0,22.47-8.85c4.26-2.5,8.36-5.44,13.11-6.77-5.91-14.91-14.68-46-14.68-46A49.34,49.34,0,0,0,248,272c2.61-.26,5.4-.6,7.38-2.32s2.48-5.34.29-6.79a22.4,22.4,0,0,0,9.9,1.69c1.76-.1,3.9-.79,4.14-2.53.18-1.28-.82-2.43-1-3.72-.21-1.92,1.54-3.54,3.36-4.21s3.83-.74,5.61-1.51A8,8,0,0,0,282.34,244.4Z"/></g><g class="cls-4"><path class="cls-6" d="M274.34,253.11c-2.9-.09-5.19-2.54-7.52-4a15.89,15.89,0,0,0-7.35-2.73,4.32,4.32,0,0,0-3,.56,1.78,1.78,0,0,0-.28,2.36,6.86,6.86,0,0,0,2.71,2.2c1.28.72,2.61,1.34,3.89,2,2.65,1.46,5.43,3.6,5.78,6.83.06.51.87.52.81,0-.53-4.93-5.4-7.08-9.24-9.13-1.1-.58-2.61-1.23-3.25-2.36-1.09-1.92,2.09-1.77,3.11-1.65a16.89,16.89,0,0,1,7.18,3.07c2.22,1.5,4.33,3.53,7.15,3.62.53,0,.52-.79,0-.81Z"/></g><g class="cls-4"><path class="cls-6" d="M256.34,262.82A94.89,94.89,0,0,1,249,251.31c-.25-.46-.95-.05-.7.4a94.23,94.23,0,0,0,7.33,11.52c.31.41,1,0,.7-.41Z"/></g><g class="cls-4"><path class="cls-6" d="M255.65,262.67a30.44,30.44,0,0,1-6.86-4.07c-.4-.32-1,.24-.57.57a31,31,0,0,0,7,4.2c.47.2.89-.5.41-.7Z"/></g><g class="cls-4"><path class="cls-6" d="M247.88,271.6a19.55,19.55,0,0,1-5.35-7.3c-.2-.47-1-.26-.78.22a20.21,20.21,0,0,0,5.56,7.65c.39.34,1-.23.57-.57Z"/></g><g class="cls-4"><path class="cls-6" d="M247.43,271.42a13.68,13.68,0,0,1-3.5-.19.43.43,0,0,0-.5.28.41.41,0,0,0,.29.5,14.39,14.39,0,0,0,3.71.22.42.42,0,0,0,.4-.41.4.4,0,0,0-.4-.4Z"/></g><path class="cls-7" d="M165.7,167.29A35.59,35.59,0,0,1,157,178.92a5.85,5.85,0,0,0,4,1.72,9.84,9.84,0,0,0-.78,3.16,12.6,12.6,0,0,0,4-1,19.84,19.84,0,0,1-6.68,9.38,15.17,15.17,0,0,0,14.6.69,22.07,22.07,0,0,1-2.34,7.26,3.72,3.72,0,0,0,3.27-.84l-.3,3.89a21.49,21.49,0,0,0,4.15-3.34,34.8,34.8,0,0,1-.77,9.6,27.16,27.16,0,0,0,14.62-7.62,17.9,17.9,0,0,0,0,5.37,15.83,15.83,0,0,0,4.29-4.11c.58,1.66,1.83,3.69,3.46,3.15a3.36,3.36,0,0,0,1.28-1c1.07-1.11,2.15-2.22,3.22-3.34a15.65,15.65,0,0,0,4.27,4.16,2.43,2.43,0,0,0,2.29.49,2.93,2.93,0,0,0,1.14-1.55,17.35,17.35,0,0,1,4.94-6.28,1.68,1.68,0,0,1,1.11-.49,1.84,1.84,0,0,1,1.15.84,55.17,55.17,0,0,0,7,7.88,15.18,15.18,0,0,0,9.47,4,41.18,41.18,0,0,0-1.7-11.83,11.51,11.51,0,0,0,9.66,2.42,27.33,27.33,0,0,1-2.4-8.71,4.69,4.69,0,0,0,3.29.62,7.1,7.1,0,0,1-1.53-4.95,16,16,0,0,0,6.4.06,16.15,16.15,0,0,1-4-13.08,19,19,0,0,0,4.58,2.09c-3.13-3.62-3-9-3.22-13.83-.69-12.49-6-25-15.47-32.77s-23.47-10.11-34.26-4.33a38.48,38.48,0,0,0-7.92,5.84,65.13,65.13,0,0,0-16.35,24.05Z"/><path class="cls-3" d="M177.88,142.78c-.55,4.21.32,8.62,0,12.85a21.25,21.25,0,0,1-.43,3c-.94,4.18-3.33,7.74-4.27,11.92-2.1,9.28,4.09,16.15,10.25,20.82a42.86,42.86,0,0,0,21.55,8.21c5.75.57,11.62-.77,17.13-2.93,4.91-1.92,10.4-4.61,13.35-9.76,1.86-3.25,2.35-7,2.38-10.75a31.2,31.2,0,0,0-.69-6.82c-.48-2.17-1.51-4.17-1.85-6.37a16.85,16.85,0,0,1,.6-6.66c.86-3.45,2-6.84,1.47-10.47a18.58,18.58,0,0,0-4-8.9,29.36,29.36,0,0,0-9.86-7.45c-7.26-3.67-15.37-5.63-23.35-4.72-7.54.87-16.53,4.56-20.52,12.44a17.56,17.56,0,0,0-1.38,3.71A15.7,15.7,0,0,0,177.88,142.78Z"/><path class="cls-7" d="M191.93,162.81c-.58,1.89.06,3.72,1.44,4.08s3-.87,3.54-2.76-.07-3.72-1.44-4.08S192.51,160.92,191.93,162.81Z"/><path class="cls-7" d="M216.94,162.93c.58,1.89-.06,3.72-1.44,4.08s-3-.87-3.54-2.76.07-3.72,1.44-4.08S216.36,161,216.94,162.93Z"/><path class="cls-8" d="M233.21,171.79a6.25,6.25,0,1,1-6.13-5.88A6,6,0,0,1,233.21,171.79Z"/><path class="cls-8" d="M191.42,173.68a6.25,6.25,0,1,1-6.12-5.88A6,6,0,0,1,191.42,173.68Z"/><path class="cls-9" d="M203.3,181.49a15.92,15.92,0,0,0,6.92-2.63c1.35-.88,3-1.94,4.45-1.05a2.47,2.47,0,0,1,1,1.28,4.28,4.28,0,0,1-.65,3.67,12.24,12.24,0,0,1-5.2,4.28c-3.25,1.6-7.27,2.4-10.42.62A7.37,7.37,0,0,1,195.9,183v0a2.11,2.11,0,0,1,2.78-2.43A12,12,0,0,0,203.3,181.49Z"/><path class="cls-10" d="M199.17,187.51l.24.15c3.16,1.78,7.17,1,10.43-.62a18.41,18.41,0,0,0,2-1.12c-1.28-1.74-3.91-2.73-6.77-2.35A7.27,7.27,0,0,0,199.17,187.51Z"/><path class="cls-3" d="M166.2,157.53a4.78,4.78,0,0,0-1.89.86,4,4,0,0,0-1.47,2.85,6.29,6.29,0,0,0,.59,2.95,12.09,12.09,0,0,0,3.71,4.81,7.54,7.54,0,0,0,3.49,1.62,5.15,5.15,0,0,0,6-4.46,6.72,6.72,0,0,0-.61-3.67C174.59,159.32,170.37,156.53,166.2,157.53Z"/><path class="cls-8" d="M166.84,161.2a8.21,8.21,0,0,1,6.17,3.87c.34.55-.56,1-.9.47a7.11,7.11,0,0,0-2.5-2.41,4.71,4.71,0,0,0,1,3.87c.41.5-.33,1.19-.74.68a5.8,5.8,0,0,1-1.2-5h0a7.08,7.08,0,0,0-1.89-.47C166.13,162.14,166.19,161.13,166.84,161.2Z"/><circle class="cls-11" cx="169.7" cy="169.81" r="4.43"/><path class="cls-3" d="M206.49,168.79c0,1.38-1.44,2.5-3.22,2.5s-3.21-1.12-3.21-2.5,1.44-2.49,3.21-2.49S206.49,167.42,206.49,168.79Z"/><path class="cls-8" d="M205.29,165.6c-2.8-.62-6.84-.1-6,3.37.71,2.95,5.2,3.43,7.76,2.52.84-.3.25-1.48-.59-1.18-1.5.54-4.53.43-5.49-.95a1.58,1.58,0,0,1,.73-2.52,6.58,6.58,0,0,1,3.12,0c.86.19,1.35-1,.48-1.21Z"/><path class="cls-7" d="M218.16,122.28a2.42,2.42,0,0,1,.1.36,3.49,3.49,0,0,1-.07,1.2,50.37,50.37,0,0,1-8,20.21A42.23,42.23,0,0,1,191.7,158.2a14.6,14.6,0,0,1-6.45,1.25,4.26,4.26,0,0,0,2-2.66,14.42,14.42,0,0,1-9.82,2.44,4.27,4.27,0,0,0,3-1.57,14.19,14.19,0,0,1-11.79-1.18c2.48-1.12,3.46-4.09,3.94-6.77.77-4.4.89-8.9,1.65-13.31s2.24-8.85,5.29-12.11a23.28,23.28,0,0,1,5.23-4c5.15-3.08,11-5.24,17-5.26a21.07,21.07,0,0,1,9,2C212.59,117.81,217.32,120.13,218.16,122.28Z"/><path class="cls-7" d="M214.82,121.84c3.22-.84,6.56.63,9.53,2.14a56.17,56.17,0,0,1,5.79,3.31A36.77,36.77,0,0,1,244.53,148a30,30,0,0,1,.69,14.33,19.41,19.41,0,0,1-7.66,11.9,17.78,17.78,0,0,0,.43-12.12,3.37,3.37,0,0,1-2.18,2.3,47.87,47.87,0,0,0-3.16-8.7,3.27,3.27,0,0,1-2.47,2L221.4,148c-3.1-3.42-6.26-6.94-7.94-11.24A27,27,0,0,1,212,125.43a6.14,6.14,0,0,1,.53-2.49,2.3,2.3,0,0,1,2-1.33"/><path class="cls-3" d="M245.36,157a4.88,4.88,0,0,1,1.9.86,4.07,4.07,0,0,1,1.46,2.85,6.27,6.27,0,0,1-.59,2.95,12.1,12.1,0,0,1-3.7,4.82,7.71,7.71,0,0,1-3.5,1.61,5.15,5.15,0,0,1-6-4.46,6.73,6.73,0,0,1,.61-3.67C237,158.79,241.2,156,245.36,157Z"/><path class="cls-8" d="M243.86,160.14a8.23,8.23,0,0,0-6.17,3.87c-.34.56.56,1,.9.47a7.2,7.2,0,0,1,2.5-2.41,4.69,4.69,0,0,1-1,3.87c-.42.51.33,1.19.74.69a5.82,5.82,0,0,0,1.2-5v0a7.48,7.48,0,0,1,1.89-.47C244.56,161.08,244.51,160.07,243.86,160.14Z"/><circle class="cls-11" cx="239.95" cy="171.85" r="4.43"/><path class="cls-7" d="M216.24,156.58a7.63,7.63,0,0,0-3.75-.56c-1.05.09-1-1.54,0-1.63a9.38,9.38,0,0,1,4.58.78c1,.41.13,1.82-.83,1.41Z"/><path class="cls-3" d="M192.17,197.11a56.26,56.26,0,0,1-3,17.36,10.64,10.64,0,0,0-.82,3.62,9.13,9.13,0,0,0,.83,3.18c4.25,10.36,10,20,15.55,29.67a3.91,3.91,0,0,0,.94,1.22c3.22,2.48,14.9-25,16.06-27.7s2.87-5.74,3-8.67a15.44,15.44,0,0,0-.3-2.94l-3-17.64a3.36,3.36,0,0,0-.4-1.28,3.08,3.08,0,0,0-1.53-1.06,30.93,30.93,0,0,0-24.59.6c-1.14.53-2.36,1.28-2.62,2.53Z"/><path class="cls-11" d="M213.39,247.1a2.71,2.71,0,0,0-2.22-2,3.21,3.21,0,0,0-2.76,1.33,10.69,10.69,0,0,0-1.47,2.22,5.75,5.75,0,0,0-3-2.75,3.42,3.42,0,0,0-4,1.09,3.23,3.23,0,0,0-.08,3.14,6.13,6.13,0,0,0,1.63,2,20.87,20.87,0,0,0,3.53,2.43c-.84,1.08-1.7,2.15-2.61,3.17a1.17,1.17,0,0,0,1.74,1.55c.92-1,1.79-2.1,2.64-3.19l1.43,2.79a1.18,1.18,0,0,0,1,.63,1.12,1.12,0,0,0,.53-.13,1.16,1.16,0,0,0,.51-1.57l-1.49-2.89a9,9,0,0,0,4.46-5.32A4.34,4.34,0,0,0,213.39,247.1Zm-11.45,2a1,1,0,0,1-.05-.85.84.84,0,0,1,.7-.26,1.82,1.82,0,0,1,.56.09,3.67,3.67,0,0,1,1.94,2.08,9.5,9.5,0,0,1,.57,2,18.38,18.38,0,0,1-2.66-1.9A4.21,4.21,0,0,1,201.94,249.08Zm9.08-.22a6.67,6.67,0,0,1-2.8,3.64,8.22,8.22,0,0,1,1.95-4.57c.39-.45.64-.54.72-.54h0a.48.48,0,0,1,.23.32A2.13,2.13,0,0,1,211,248.86Z"/><path class="cls-12" d="M192.22,196.47s10.55,4.46,24.93.86L188.82,215.7A69.83,69.83,0,0,0,192.22,196.47Z"/><g class="cls-4"><path class="cls-6" d="M141,253.77c2.46-.08,4.36-1.64,6.27-3a20.16,20.16,0,0,1,6.94-3.48c1.1-.26,2.79-.58,3.85,0s.46,1.55-.15,2.14a9.1,9.1,0,0,1-1.75,1.18c-2.19,1.26-4.57,2.2-6.58,3.77a8.77,8.77,0,0,0-3.63,5.89c0,.52.76.51.81,0,.31-2.82,2.53-4.89,4.83-6.28,1.21-.74,2.49-1.35,3.74-2a11.87,11.87,0,0,0,3.35-2.18,2.21,2.21,0,0,0,.63-2.41,2.59,2.59,0,0,0-2.39-1.14,14,14,0,0,0-7.48,2.19c-1.33.76-2.55,1.67-3.8,2.56a8.6,8.6,0,0,1-4.64,2c-.52,0-.52.83,0,.81Z"/></g><g class="cls-4"><path class="cls-6" d="M159.7,263.07A94.63,94.63,0,0,0,167,251.56c.25-.46-.45-.87-.7-.41A94.63,94.63,0,0,1,159,262.66c-.31.42.39.83.7.41Z"/></g><g class="cls-4"><path class="cls-6" d="M160.11,263.22a31,31,0,0,0,7-4.2c.4-.33-.17-.9-.58-.58a30,30,0,0,1-6.85,4.08c-.48.2-.07.9.41.7Z"/></g><g class="cls-4"><path class="cls-6" d="M168,272a20.4,20.4,0,0,0,5.55-7.66c.21-.48-.58-.69-.78-.21a19.33,19.33,0,0,1-5.35,7.29c-.39.34.18.91.58.58Z"/></g><g class="cls-4"><path class="cls-6" d="M167.92,272.08a14.45,14.45,0,0,0,3.71-.22.42.42,0,0,0,.28-.5.4.4,0,0,0-.5-.28,14.06,14.06,0,0,1-3.49.19.4.4,0,0,0-.41.4.43.43,0,0,0,.41.41Z"/></g><rect class="cls-5" x="183.9" y="221.63" width="44.97" height="4.64"/><g class="cls-4"><path class="cls-6" d="M246.57,284.61c-1.54,1.08-3.66-.18-5.11-.86-1.86-.85-3.68-1.77-5.48-2.75-.46-.25-.87.45-.41.7,2.05,1.11,4.13,2.15,6.25,3.1,1.56.71,3.56,1.62,5.16.51.42-.3,0-1-.41-.7Z"/></g><g class="cls-4"><path class="cls-6" d="M246.4,284.74a12.56,12.56,0,0,1-4.66,4.17c-.46.25-.05.95.41.7a13.44,13.44,0,0,0,4.95-4.46c.29-.44-.41-.84-.7-.41Z"/></g><g class="cls-4"><path class="cls-6" d="M246.72,284.46a20.88,20.88,0,0,1-10.52,1.32c-.51-.07-.51.75,0,.81a21.41,21.41,0,0,0,10.74-1.35c.47-.19.27-1-.22-.78Z"/></g><g class="cls-4"><path class="cls-6" d="M168.36,285.16c1.6,1.11,3.6.2,5.16-.51,2.12-1,4.21-2,6.25-3.1.46-.25,0-.95-.4-.7q-2.7,1.45-5.49,2.75c-1.45.67-3.57,1.93-5.11.86-.43-.3-.83.4-.41.7Z"/></g><g class="cls-4"><path class="cls-6" d="M168.24,285a13.46,13.46,0,0,0,4.95,4.47c.46.24.87-.46.41-.7a12.65,12.65,0,0,1-4.66-4.18c-.28-.43-1,0-.7.41Z"/></g><g class="cls-4"><path class="cls-6" d="M168.41,285.09a21.36,21.36,0,0,0,10.73,1.35c.51-.07.52-.88,0-.81a21,21,0,0,1-10.52-1.32c-.48-.2-.69.58-.21.78Z"/></g><path class="cls-7" d="M295.22,369.78a23.29,23.29,0,0,1,8,4.28c2.24,2.06,3.76,5.13,3.25,8.13-.55,3.21-3.32,5.69-6.38,6.8s-6.4,1.12-9.66,1.05q-16.35-.33-32.62-2.25c-2.85-.34-6-.92-7.64-3.3A8.35,8.35,0,0,1,249,380.3a23.44,23.44,0,0,1,4.33-15c.64-.89,1.75-1.83,2.7-1.29C256,364,282.62,365.26,295.22,369.78Z"/><path class="cls-3" d="M254.13,365.88c3.9-1,8.34.16,12.49.45a78,78,0,0,1,21.88,4.57,9.94,9.94,0,0,1,4.1,2.32c2.54,2.79,1.18,7.6-1.83,9.87s-7,2.66-10.76,2.77a117.5,117.5,0,0,1-27.17-2.33c-2-.42-4.21-1-5.45-2.64-2.48-3.29-.88-9,1.54-11.79A9.77,9.77,0,0,1,254.13,365.88Z"/><rect class="cls-13" x="151.8" y="271.71" width="111.29" height="75.09"/><polygon class="cls-12" points="151.71 271.71 151.71 279.01 255.85 279.01 255.85 346.8 263 346.8 263 271.71 151.71 271.71"/><path class="cls-11" d="M262.84,359q-51.75-17-104.5-30.7c-12.18-3.17-25.21-6.17-37.12-2.12-7.79,2.66-14.82,8.89-16.3,17a21.48,21.48,0,0,0,4,16.08,33.64,33.64,0,0,0,13.21,10.47,87.86,87.86,0,0,0,14.56,4.93c37.69,10.16,76.75,16.66,115.72,14.29a4.64,4.64,0,0,0,2-.43A4.75,4.75,0,0,0,256,386.7a54.47,54.47,0,0,0,6.4-13.32C263.8,368.63,262.84,359,262.84,359Z"/><g class="cls-4"><path class="cls-2" d="M258.94,375.82a4.75,4.75,0,0,1-1.57,1.78,4.64,4.64,0,0,1-2,.43c-39,2.37-78-4.14-115.72-14.29a87.86,87.86,0,0,1-14.56-4.93,33.64,33.64,0,0,1-13.21-10.47,22.63,22.63,0,0,1-4.29-11.8,18.5,18.5,0,0,0-2.62,6.6,21.52,21.52,0,0,0,4,16.08,33.64,33.64,0,0,0,13.21,10.47,88.17,88.17,0,0,0,14.56,4.93c37.7,10.16,76.76,16.66,115.72,14.29a4.58,4.58,0,0,0,2-.43,4.69,4.69,0,0,0,1.58-1.78,54.84,54.84,0,0,0,6.4-13.32,23.55,23.55,0,0,0,.68-5.14A78.87,78.87,0,0,1,258.94,375.82Z"/></g><path class="cls-5" d="M296.68,386.12a2.72,2.72,0,0,0,2-2.22,3.24,3.24,0,0,0-1.33-2.76,10.27,10.27,0,0,0-2.22-1.46,5.81,5.81,0,0,0,2.75-3,3.4,3.4,0,0,0-1.09-4,3.23,3.23,0,0,0-3.14-.09,6.16,6.16,0,0,0-1.95,1.64,21.88,21.88,0,0,0-2.44,3.52c-1.07-.83-2.14-1.7-3.16-2.61a1.17,1.17,0,0,0-1.65.1,1.14,1.14,0,0,0-.29.77,1.16,1.16,0,0,0,.39.88c1,.91,2.1,1.78,3.19,2.63L285,381a1.16,1.16,0,0,0-.64,1,1.3,1.3,0,0,0,.13.54,1.17,1.17,0,0,0,1.58.5l2.89-1.49a8.9,8.9,0,0,0,5.31,4.46A4.38,4.38,0,0,0,296.68,386.12Zm-2-11.44a1,1,0,0,1,.85-.05.81.81,0,0,1,.26.69,1.82,1.82,0,0,1-.09.56,3.71,3.71,0,0,1-2.08,1.95,9.49,9.49,0,0,1-2,.56,18.38,18.38,0,0,1,1.9-2.66A4,4,0,0,1,294.7,374.68Zm.22,9.08a6.71,6.71,0,0,1-3.64-2.8,8.17,8.17,0,0,1,4.56,1.94c.46.4.55.65.55.72h0a.48.48,0,0,1-.32.24A2.23,2.23,0,0,1,294.92,383.76Z"/><path class="cls-14" d="M129.3,326.81a20.25,20.25,0,0,1,2.7.09"/><path class="cls-15" d="M137.18,327.47c13.12,1.82,45.56,8.42,118.18,32.2"/><path class="cls-14" d="M257.84,360.49l2.57.84"/><path class="cls-7" d="M109.86,374a23.15,23.15,0,0,0-8,4.29c-2.24,2.05-3.76,5.12-3.25,8.12.55,3.21,3.32,5.69,6.38,6.81s6.4,1.11,9.66,1q16.35-.33,32.62-2.25c2.85-.34,6-.92,7.64-3.3a8.3,8.3,0,0,0,1.16-4.19,23.46,23.46,0,0,0-4.33-15c-.64-.89-1.75-1.83-2.7-1.29C149.05,368.22,122.46,369.47,109.86,374Z"/><path class="cls-3" d="M151,370.09c-3.9-1-8.34.15-12.49.45a77.93,77.93,0,0,0-21.88,4.56,9.85,9.85,0,0,0-4.1,2.33c-2.54,2.78-1.18,7.59,1.83,9.87s7,2.65,10.76,2.77a118.06,118.06,0,0,0,27.17-2.34c2-.41,4.21-1,5.45-2.64,2.48-3.29.88-9-1.54-11.79A9.69,9.69,0,0,0,151,370.09Z"/><path class="cls-11" d="M142.24,363.17q51.75-17,104.5-30.7c12.18-3.16,25.21-6.17,37.12-2.11,7.79,2.65,14.82,8.88,16.3,17a21.51,21.51,0,0,1-4,16.09,33.71,33.71,0,0,1-13.21,10.46,86.94,86.94,0,0,1-14.56,4.93c-37.69,10.16-76.75,16.66-115.72,14.29a3.54,3.54,0,0,1-3.59-2.21,54.41,54.41,0,0,1-6.4-13.31C141.28,372.83,142.24,363.17,142.24,363.17Z"/><g class="cls-4"><path class="cls-2" d="M146.14,380a4.75,4.75,0,0,0,1.57,1.78,4.64,4.64,0,0,0,2,.43c39,2.37,78-4.13,115.72-14.29A87.86,87.86,0,0,0,280,363a33.64,33.64,0,0,0,13.21-10.47,22.63,22.63,0,0,0,4.29-11.79,18.45,18.45,0,0,1,2.62,6.59,21.54,21.54,0,0,1-4,16.09,33.71,33.71,0,0,1-13.21,10.46,87.25,87.25,0,0,1-14.56,4.93c-37.7,10.16-76.76,16.66-115.72,14.29a3.56,3.56,0,0,1-3.6-2.21,54.77,54.77,0,0,1-6.4-13.31,23.64,23.64,0,0,1-.68-5.15A78.87,78.87,0,0,0,146.14,380Z"/></g><path class="cls-5" d="M110.83,390.2a9,9,0,0,0,5.31-4.47l2.89,1.49a1.17,1.17,0,0,0,1.58-.5,1.25,1.25,0,0,0,.13-.53,1.18,1.18,0,0,0-.64-1l-2.79-1.44c1.09-.84,2.16-1.71,3.19-2.63a1.18,1.18,0,0,0,.1-1.65,1.17,1.17,0,0,0-1.65-.09c-1,.9-2.09,1.77-3.16,2.6a21.88,21.88,0,0,0-2.44-3.52,6.29,6.29,0,0,0-1.95-1.64,3.23,3.23,0,0,0-3.14.09,3.4,3.4,0,0,0-1.09,4,5.78,5.78,0,0,0,2.75,3,10.31,10.31,0,0,0-2.22,1.47,3.21,3.21,0,0,0-1.33,2.75,2.72,2.72,0,0,0,2,2.22A4.46,4.46,0,0,0,110.83,390.2Zm.74-10.26a18.29,18.29,0,0,1,1.9,2.65,8.94,8.94,0,0,1-2-.56,3.65,3.65,0,0,1-2.08-1.95,1.76,1.76,0,0,1-.09-.55.83.83,0,0,1,.26-.7,1,1,0,0,1,.85.05A3.93,3.93,0,0,1,111.57,379.94ZM109,388.07c-.19-.05-.32-.19-.32-.24h0c0-.07.09-.32.55-.71a8.19,8.19,0,0,1,4.56-1.95,6.67,6.67,0,0,1-3.64,2.8A2.13,2.13,0,0,1,109,388.07Z"/><path class="cls-14" d="M275.78,331a22.93,22.93,0,0,0-2.7.09"/><path class="cls-15" d="M267.9,331.68c-13.12,1.81-45.56,8.42-118.18,32.19"/><path class="cls-14" d="M147.24,364.69l-2.57.84"/><circle class="cls-5" cx="207.36" cy="313.56" r="14.8" transform="translate(-141.74 453.01) rotate(-78.3)"/><g class="cls-4"><path class="cls-16" d="M186.74,157.29c6.7-7.29,13.6-14.92,16.55-24.58a.41.41,0,0,0-.78-.22c-2.91,9.53-9.74,17-16.34,24.23-.36.38.22.95.57.57Z"/></g><g class="cls-4"><path class="cls-16" d="M187.28,156.3a63.67,63.67,0,0,0,9.49-20.85.4.4,0,0,0-.78-.21,63,63,0,0,1-9.41,20.65c-.3.43.4.83.7.41Z"/></g><g class="cls-4"><path class="cls-16" d="M233.66,155.38A28.84,28.84,0,0,0,229,139.12c-.28-.44-1,0-.7.41a28,28,0,0,1,4.54,15.85.41.41,0,0,0,.81,0Z"/></g><g class="cls-4"><path class="cls-16" d="M234.07,155.35a47.49,47.49,0,0,0,.06-15.6c-.08-.51-.86-.29-.78.22a46.46,46.46,0,0,1-.06,15.16c-.09.51.7.73.78.22Z"/></g><g class="cls-4"><path class="cls-16" d="M235.71,161.39c.55-4.67,1.14-9.44,3.2-13.72.22-.47-.48-.88-.7-.41-2.13,4.42-2.74,9.31-3.31,14.13-.06.51.75.51.81,0Z"/></g><g class="cls-4"><path class="cls-16" d="M236.41,159.43a17.18,17.18,0,0,1,3.43-7.57c.32-.4-.25-1-.57-.57a17.88,17.88,0,0,0-3.64,7.93c-.1.51.68.73.78.21Z"/></g><g class="cls-4"><path class="cls-16" d="M169.35,156.9a7.06,7.06,0,0,0,4.69-1.3,24.81,24.81,0,0,0,9.41-10.76c.21-.47-.49-.88-.7-.41a24.28,24.28,0,0,1-5,7.21,23,23,0,0,1-3.36,2.78c-1.4,1-3,1.94-4.8,1.7-.51-.07-.73.71-.22.78Z"/></g><g class="cls-4"><path class="cls-16" d="M170.71,156.34a42.35,42.35,0,0,0,11.46-26.69c0-.52-.79-.52-.81,0a41.44,41.44,0,0,1-11.23,26.12c-.36.38.22.95.58.57Z"/></g><g class="cls-4"><path class="cls-16" d="M185.54,125.83a17.49,17.49,0,0,1,23.13-5.07.4.4,0,0,0,.41-.69,18.3,18.3,0,0,0-24.24,5.35c-.3.43.4.84.7.41Z"/></g><g class="cls-4"><path class="cls-16" d="M216,123.7a13.74,13.74,0,0,1,6.9,2.4c1,.66,2,1.4,3,2.16a22.65,22.65,0,0,1,2.82,2.44c.35.39.92-.18.58-.57a23.32,23.32,0,0,0-3-2.59,37.28,37.28,0,0,0-3.17-2.27,14.49,14.49,0,0,0-7.11-2.38c-.52,0-.52.79,0,.81Z"/></g><g class="cls-4"><path class="cls-16" d="M230.7,156.2a47.55,47.55,0,0,1-13.21-27.76c-.06-.51-.87-.52-.81,0a48.41,48.41,0,0,0,13.45,28.33c.36.37.94-.2.57-.57Z"/></g><g class="cls-4"><path class="cls-16" d="M231,156.14a52.38,52.38,0,0,1-3.68-13c-.08-.51-.86-.29-.79.22a53.56,53.56,0,0,0,3.77,13.18c.21.48.9.06.7-.41Z"/></g><g class="cls-4"><path class="cls-16" d="M186.77,159.62c10.32-5.4,21.2-13.41,22.19-26,0-.52-.77-.51-.81,0-1,12.31-11.76,20.09-21.79,25.33-.46.24-.05.94.41.7Z"/></g><g class="cls-4"><path class="cls-16" d="M209,141.85a27.37,27.37,0,0,0,2.45-10.42c0-.52-.79-.52-.81,0a26.42,26.42,0,0,1-2.34,10c-.21.47.49.88.7.41Z"/></g><g class="cls-4"><path class="cls-16" d="M157.61,179.6a15,15,0,0,0,8.81-5c.34-.39-.23-1-.57-.57a14.37,14.37,0,0,1-8.45,4.76c-.52.09-.3.87.21.78Z"/></g><g class="cls-4"><path class="cls-16" d="M161.07,183.72a29.84,29.84,0,0,0,5.13-6.34c.27-.44-.43-.85-.7-.4a28.78,28.78,0,0,1-5,6.16c-.38.36.19.93.57.58Z"/></g><g class="cls-4"><path class="cls-16" d="M157.94,192.76a6,6,0,0,0,4.3-.6,28.92,28.92,0,0,0,3.8-2,13.14,13.14,0,0,0,5.34-5.92c.2-.48-.58-.69-.78-.21a12.31,12.31,0,0,1-5,5.43,28.13,28.13,0,0,1-3.14,1.73c-1.34.64-2.83,1.32-4.33.83-.5-.17-.71.61-.22.78Z"/></g><g class="cls-4"><path class="cls-16" d="M159.14,193c1.22.05,2.15-.94,3-1.68s1.85-1.66,2.71-2.56a18.11,18.11,0,0,0,4-6.06c.18-.49-.6-.7-.79-.22a16.68,16.68,0,0,1-3.68,5.59c-.76.8-1.57,1.56-2.39,2.29-.41.37-.83.73-1.25,1.08a2.39,2.39,0,0,1-1.62.75c-.52,0-.52.79,0,.81Z"/></g><g class="cls-4"><path class="cls-16" d="M172.33,193a15.88,15.88,0,0,0,1.6-4.48.42.42,0,0,0-.28-.5.41.41,0,0,0-.5.28,15.14,15.14,0,0,1-1.52,4.29c-.25.46.45.87.7.41Z"/></g><g class="cls-4"><path class="cls-16" d="M172.81,192.75a4.34,4.34,0,0,0,2.21-2.44.4.4,0,0,0-.28-.49.41.41,0,0,0-.5.28.36.36,0,0,1,0,.09s0,.11,0,0a1,1,0,0,1-.07.15,3.24,3.24,0,0,1-.17.32l-.21.3c-.05.08,0,0,0,0l-.06.07-.12.14c-.08.09-.17.17-.26.26l-.14.11s-.1.08,0,0l-.07,0a3.25,3.25,0,0,1-.65.38.4.4,0,0,0-.14.55.41.41,0,0,0,.55.15Z"/></g><g class="cls-4"><path class="cls-16" d="M170.08,200.48a19.88,19.88,0,0,0,5.78-8.53c.17-.49-.61-.7-.78-.21a19.12,19.12,0,0,1-5.58,8.17c-.39.34.18.91.58.57Z"/></g><g class="cls-4"><path class="cls-16" d="M171.53,199.89a26.07,26.07,0,0,0,4.28-4.44.4.4,0,0,0-.14-.55.43.43,0,0,0-.56.14,25.09,25.09,0,0,1-4.15,4.28.4.4,0,0,0,.57.57Z"/></g><g class="cls-4"><path class="cls-16" d="M177.17,209.36a7.58,7.58,0,0,0,2.61-2.58l2.61-3.76c1.69-2.46,3.11-5.22,2.67-8.28-.07-.52-.85-.3-.78.21.41,2.92-1.13,5.57-2.74,7.87-.76,1.09-1.53,2.17-2.28,3.28a7.13,7.13,0,0,1-2.5,2.56c-.46.24,0,.94.41.7Z"/></g><g class="cls-4"><path class="cls-16" d="M177.41,210A27,27,0,0,0,182,198.34c.07-.51-.71-.73-.78-.21a26.42,26.42,0,0,1-4.46,11.45c-.3.43.4.83.7.41Z"/></g><g class="cls-4"><path class="cls-16" d="M233.92,210a26.33,26.33,0,0,1-6.07-11.85c-.11-.51-.89-.3-.78.21a27.24,27.24,0,0,0,6.28,12.22c.35.38.92-.19.57-.58Z"/></g><g class="cls-4"><path class="cls-16" d="M233.81,210.38v.06l.19-.24c.23.07.28,0,.15-.14l-.14-.27-.2-.41c-.16-.32-.31-.65-.46-1-.32-.69-.63-1.38-.92-2.08-.56-1.35-1.06-2.72-1.51-4.1-.17-.49-.95-.28-.78.22q.87,2.67,2,5.25c.37.84.76,1.68,1.17,2.5.16.31.29.65.66.75a.48.48,0,0,0,.63-.35c.08-.51-.7-.73-.78-.22Z"/></g><g class="cls-4"><path class="cls-16" d="M241.34,201.34a23.86,23.86,0,0,1-6.52-8c-.24-.47-.94-.06-.7.4a24.19,24.19,0,0,0,6.65,8.21c.4.32,1-.25.57-.57Z"/></g><g class="cls-4"><path class="cls-16" d="M241.44,201a17.76,17.76,0,0,1-4.11-10.09c0-.51-.85-.52-.81,0a18.75,18.75,0,0,0,4.34,10.67c.34.4.91-.18.58-.58Z"/></g><g class="cls-4"><path class="cls-16" d="M242.43,193c-1.72-2.65-3.48-5.5-3.67-8.74,0-.52-.83-.52-.81,0,.2,3.4,2,6.36,3.78,9.15.28.44,1,0,.7-.41Z"/></g><g class="cls-4"><path class="cls-16" d="M247.15,187.66c-2.41-2.32-3.52-5.56-4.34-8.72a.41.41,0,0,0-.78.22c.86,3.29,2,6.65,4.54,9.07.38.36,1-.21.58-.57Z"/></g><g class="cls-4"><path class="cls-16" d="M240,169.73c.41-.14.84.56,1,.85a2.73,2.73,0,0,1,.41,1.44A1.78,1.78,0,0,1,240,173.8c-.52,0-.52.85,0,.81a2.6,2.6,0,0,0,2.29-2.66,3.68,3.68,0,0,0-.65-2c-.39-.57-1-1.28-1.79-1-.49.16-.28,1,.21.78Z"/></g><g class="cls-4"><path class="cls-16" d="M168.15,167.42a2.93,2.93,0,0,0,.64,5.79.41.41,0,0,0,0-.81,2.12,2.12,0,0,1-.42-4.2c.5-.12.29-.9-.22-.78Z"/></g><path class="cls-11" d="M320.94,154.53,329.7,145l-1.87-4.9s-5.65.79-5.81,1.27-.63,6.84-.71,7.95l-.37,5.22"/><path class="cls-5" d="M363.9,106.42a1,1,0,0,0-1-.23l-59.17,21.95a1,1,0,0,0-.07,1.76l10.64,4.91a2.88,2.88,0,0,1,1.61,2L319.34,154a1,1,0,0,0,.79.76,1,1,0,0,0,1-.49l5.43-10.08a1,1,0,0,1,1.53-.2l13.46,14.3a1,1,0,0,0,.69.3l.17,0a.94.94,0,0,0,.71-.57l21-50.58A1,1,0,0,0,363.9,106.42Z"/><path class="cls-17" d="M363.48,106.17l-48.31,29.3a2.76,2.76,0,0,1,.73,1.38L319.34,154a1,1,0,0,0,.79.76,1,1,0,0,0,1-.49l5.43-10.08a1.22,1.22,0,0,1,.15-.17v0l37.2-37.59A1.07,1.07,0,0,0,363.48,106.17Z"/><path class="cls-18" d="M306.81,162.73a23.07,23.07,0,0,0,4.06,37.9c5.82,3.12,14,3.16,18.19-1.93s.41-15-6.14-14.12c-4.69.61-7.36,5.69-8.46,10.29s-1.6,9.72-4.93,13.08c-4.5,4.56-12.53,3.64-17.52-.37s-7.6-10.23-9.68-16.29c-7.75-22.53-10.32-48.75-24.7-68.81C242.26,101,214.92,96.78,190.44,102c-14.66,3.11-28.53,10.16-36.94,23-10.74,16.35-9.33,36.82-15.92,54.78-3.74,10.21-9.47,20.28-18.41,26.79-5.89,4.3-25.46,12.94-31.56,5.17a5.22,5.22,0,0,1-.37-5.73c2.06-3.48,7.87-3,10.22.29s1.69,8-.49,11.41-5.6,5.79-8.92,8.1c-16.28,11.3-32.4,25.28-41.61,43.17-4.67,9.08-7,20.83-7,31C39.34,310.44,43,322.67,54.1,326c2.87.87,6.36.64,8.37-1.6,3.27-3.65-.68-10.38-5.58-10.11s-8.31,5.95-7.21,10.74,5.61,8.24,10.41,9.3c12.42,2.75,19.31-7.75,25.49-16.64,9.55-13.76,28.93-25.41,45.2-14.83"/><path class="cls-11" d="M361.38,259.57a18.26,18.26,0,0,0-2.39-3.94l.89-3.62L354,247.9l-3.13,2a16.62,16.62,0,0,0-4.51-1l-1.79-3.3-7.12,1.18-.74,3.72a18.61,18.61,0,0,0-3.95,2.4l-3.62-.89L325,257.81l2,3.14a17,17,0,0,0-1,4.5l-3.27,1.91,1.18,7.12,3.72.75a18.5,18.5,0,0,0,2.39,3.94l-.88,3.62,5.89,4.11,3.14-2a16.2,16.2,0,0,0,4.5,1l1.91,3.28,7-1.17.75-3.72a18.34,18.34,0,0,0,3.94-2.39l3.62.89,4.24-5.79-2-3.14a16.27,16.27,0,0,0,1-4.51l3.28-1.91-1.19-7.12ZM345.89,276a8.81,8.81,0,1,1,7.25-10.14A8.77,8.77,0,0,1,345.89,276Z"/><path class="cls-5" d="M351.63,272.48a8.72,8.72,0,0,1-12.19,2l-2.62,3.66a13.24,13.24,0,1,0,15.39-21.54l-2.61,3.66A8.72,8.72,0,0,1,351.63,272.48Z"/><path class="cls-5" d="M333.75,259.7a13.29,13.29,0,0,0,3.07,18.47l2.62-3.66a8.74,8.74,0,1,1,10.16-14.22l2.61-3.66A13.29,13.29,0,0,0,333.75,259.7Z"/><path class="cls-13" d="M369,292.41a6,6,0,0,0-.34-2.05l1-1.41-1.71-2.81-1.69.28a15.66,15.66,0,0,0-1.69-1.21l-.28-1.69-3.21-.7-1,1.41a6,6,0,0,0-2,.34l-1.41-1-2.82,1.71L354,287a15.28,15.28,0,0,0-1.21,1.69l-1.69.28-.71,3.22,1.41,1a6,6,0,0,0,.34,2.06l-1,1.4,1.71,2.82,1.69-.28a15.64,15.64,0,0,0,1.69,1.2l.28,1.69,3.21.71,1-1.41a6,6,0,0,0,2.05-.34l1.41,1,2.82-1.71-.29-1.69a16.29,16.29,0,0,0,1.21-1.69l1.69-.28.71-3.22Zm-9.23,4.14a4,4,0,1,1,4.7-3A3.9,3.9,0,0,1,359.73,296.55Z"/><path class="cls-5" d="M382.13,274a6,6,0,0,0-.34-2.05l1-1.41-1.71-2.81-1.69.28a16.72,16.72,0,0,0-1.69-1.21l-.28-1.69-3.22-.7-1,1.41a5.92,5.92,0,0,0-2,.34l-1.41-1-2.82,1.71.28,1.69a16.69,16.69,0,0,0-1.2,1.69l-1.69.28-.71,3.22,1.41,1a6,6,0,0,0,.34,2.06l-1,1.4,1.71,2.82,1.69-.28a17.9,17.9,0,0,0,1.69,1.2l.28,1.69,3.22.71,1-1.41a6,6,0,0,0,2.05-.34l1.41,1,2.81-1.71-.28-1.69a17.93,17.93,0,0,0,1.21-1.69l1.69-.28.7-3.22Zm-9.33,4.29a4,4,0,1,1,4.71-3A3.84,3.84,0,0,1,372.8,278.26Z"/><path class="cls-13" d="M214.68,81a25,25,0,0,1,7.51-11.49A30.14,30.14,0,0,0,233,46.37,30.48,30.48,0,0,0,201,15.9c-15.67.66-28.48,13.91-28.92,29.59a30.23,30.23,0,0,0,10.82,24.06A23.8,23.8,0,0,1,190.62,81Z"/><path class="cls-19" d="M195.69,101.35a7.38,7.38,0,0,0,13.7,0Z"/><path class="cls-19" d="M210.71,101.57H194.59a4,4,0,0,1-4-4V80.82h24.06V97.6A4,4,0,0,1,210.71,101.57Z"/><path class="cls-20" d="M214.46,89.21H190.62a2.45,2.45,0,0,1-2.43-2.43h0a2.45,2.45,0,0,1,2.43-2.43h23.84a2.45,2.45,0,0,1,2.43,2.43h0A2.45,2.45,0,0,1,214.46,89.21Z"/><path class="cls-20" d="M214.46,96.94H190.62a2.45,2.45,0,0,1-2.43-2.43h0a2.45,2.45,0,0,1,2.43-2.43h23.84a2.45,2.45,0,0,1,2.43,2.43h0A2.45,2.45,0,0,1,214.46,96.94Z"/><path class="cls-13" d="M202.54,0a2.22,2.22,0,0,0-2.21,2.21V9.72a2.21,2.21,0,0,0,2.21,2.2,2.09,2.09,0,0,0,2.21-2.2V2.21A2.22,2.22,0,0,0,202.54,0Z"/><path class="cls-13" d="M173,13.47a2.18,2.18,0,0,0-3.09,3.09l5.3,5.3a2.18,2.18,0,0,0,3.09-3.09Z"/><path class="cls-13" d="M166.11,43.94H158.6a2.21,2.21,0,0,0-2.21,2.21h0a2.22,2.22,0,0,0,2.21,2.21h7.51a2.21,2.21,0,0,0,2.2-2.21h0A2.38,2.38,0,0,0,166.11,43.94Z"/><path class="cls-13" d="M175.16,70.44l-5.3,5.3A2.18,2.18,0,0,0,173,78.83l5.3-5.3a2.18,2.18,0,0,0-3.09-3.09Z"/><path class="cls-13" d="M229.92,70.44a2.18,2.18,0,0,0-3.09,3.09l5.3,5.3a2.18,2.18,0,1,0,3.09-3.09Z"/><path class="cls-13" d="M246.48,43.94H239a2.21,2.21,0,0,0-2.2,2.21h0a2.21,2.21,0,0,0,2.2,2.21h7.51a2.22,2.22,0,0,0,2.21-2.21h0A2.22,2.22,0,0,0,246.48,43.94Z"/><path class="cls-13" d="M232.13,13.47l-5.3,5.3a2.18,2.18,0,0,0,3.09,3.09l5.3-5.3a2.18,2.18,0,1,0-3.09-3.09Z"/><path class="cls-21" d="M191.82,80.28a72.7,72.7,0,0,0,5.9-14.35c.78-2.58,1.47-5.19,2.14-7.81.62-2.46,1.33-4.94,1.71-7.45.56-3.65,0-11.26-5.54-10-3.89.91-6,5.17-5.93,8.9.09,4.65,3.28,8.92,6.42,12.11a6.05,6.05,0,0,0,5.88,2,11.12,11.12,0,0,0,5.57-4c2.8-3.44,5.35-7.82,4.06-12.4-.46-1.63-1.72-4-3.52-4.45-2.44-.61-3,3-3.29,4.64a61.73,61.73,0,0,0-.51,8.49c-.07,2.85-.09,5.7.07,8.55a41.34,41.34,0,0,0,4,16.47c.74,1.46,2.94.17,2.2-1.29-3.67-7.25-3.9-15.55-3.72-23.51.05-2.06.08-4.12.23-6.16a19.39,19.39,0,0,1,.41-2.95,11.55,11.55,0,0,1,.35-1.28c0-.14.44-1,0-.51-.27.27-.22.11.11.44,2.68,2.69,1.36,6.91-.39,9.69-1.52,2.43-5.22,7.68-8.63,5.37a17.13,17.13,0,0,1-3.84-4.25,15.17,15.17,0,0,1-2.59-5.27c-.65-2.79.26-6.64,3.17-7.84a1.66,1.66,0,0,1,2.34.59,6.64,6.64,0,0,1,.87,2.81,18.22,18.22,0,0,1-.67,5.92c-2.12,9-4.42,18.17-8.95,26.3-.8,1.43,1.4,2.72,2.2,1.28Z"/><path class="cls-21" d="M204.48,22.59c6.4-.61,12,3.64,14.89,9.07a30.28,30.28,0,0,1,3,9.62c.54,3.42,1,7.31-.05,10.66-.51,1.56,2,2.23,2.46.68,1.21-3.68.67-7.83.12-11.6a32.41,32.41,0,0,0-3.53-11c-3.34-6-9.81-10.64-16.89-10-1.62.15-1.63,2.7,0,2.55Z"/><path class="cls-11" d="M218.36,264.53c12.51-15,12.67-36.47,19.67-54.7,1.95-5.08,5-10.41,10.16-12,6.76-2.11,14.06,3.61,15.85,10.46s-.55,14.11-3.76,20.41a75.83,75.83,0,0,1-43.07,37.06Z"/><path class="cls-13" d="M273.49,223c.46-3.1.91-6.2,1.37-9.3a15.19,15.19,0,0,1,1.35-5,5.07,5.07,0,0,1,4.09-2.84,4.58,4.58,0,0,1,4.19,3.3,7.43,7.43,0,0,1-.73,5.54c-1.92,3.67-5.73,5.89-9.35,7.92Z"/><path class="cls-13" d="M163.38,257.17c-8.74-11.87-14.4-26.71-26.68-34.86-2.56-1.7-5.5-3.09-8.56-2.93-4.57.24-8.47,4.1-9.54,8.55s.35,9.25,3,13a34.13,34.13,0,0,0,9.92,8.79,77.62,77.62,0,0,0,35.88,11.83A48.46,48.46,0,0,1,163.38,257.17Z"/><path class="cls-13" d="M158.3,240.8c-.89-1.75-1.54-4.35.19-5.28s3.57,1.12,4.38,2.93a40.78,40.78,0,0,1,3.51,13.73S160.56,245.27,158.3,240.8Z"/><path class="cls-11" d="M130.42,286.92c-2.09-17.79-19.44-27.42-35.14-31-9.4-2.15-20.8-1.64-27.47,6.24-3.93,4.63-5.36,11.48-2.85,17,3.74,8.27,11.82,8.51,19.16,5,9.34-4.5,15.32-10.82,26.83-9.64A25.52,25.52,0,0,1,130.42,286.92Z"/><path class="cls-5" d="M116.19,284.94A18.37,18.37,0,0,0,95,291.06c-1.37,1.91-2.34,4.58-1.06,6.55a5.2,5.2,0,0,0,2,1.7,9.51,9.51,0,0,0,10.7-1.67c2-2,3-4.75,4.34-7.23s3.43-4.92,6.24-5.25Z"/><path class="cls-5" d="M98.86,249.56c-1.47-2-2.61-5-.94-6.89,1.92-2.13,5.59-.62,7.37,1.63,2.11,2.67,3,6.07,4.58,9.11s1.5,3.15,7.47,6.32C117.34,259.73,103.13,255.49,98.86,249.56Z"/><path class="cls-5" d="M274.23,325.56c2.51-11.1,9.29-21.4,19.13-27.12s22.72-6.39,32.6-.75c2.74,1.56,5.33,3.7,6.51,6.62s.76,6.57-.43,9.65a17.35,17.35,0,0,1-6.79,8.59,12,12,0,0,1-10.69,1.1c-4.89-2-7.41-7.49-11.66-10.67-5-3.74-12.19-3.88-17.82-1.14S274.23,325.56,274.23,325.56Z"/><path class="cls-11" d="M278.32,305a14.17,14.17,0,0,0,3-10.44c-.45-4-2.11-7.7-3.33-11.51-.77-2.43-1.37-5.05-.68-7.51,1.37-4.88,6.44-5.09,9.15-.94,3.42,5.23,3.14,14.69,1.32,20.37a16.17,16.17,0,0,1-3.5,6.13C282.8,302.7,279.48,303.51,278.32,305Z"/><path class="cls-17" d="M35.37,104.93a27.85,27.85,0,1,0,27.84,27.84A27.76,27.76,0,0,0,35.37,104.93Zm0,50.63a22.79,22.79,0,1,1,22.78-22.79A22.86,22.86,0,0,1,35.37,155.56Z"/><path class="cls-5" d="M35.37,104.93h0A27.76,27.76,0,0,0,7.52,132.77h0a2.63,2.63,0,0,0,2.66-2.4,25.47,25.47,0,0,1,7.47-15.7A25.1,25.1,0,0,1,33,107.58,2.62,2.62,0,0,0,35.37,104.93Z"/><path class="cls-5" d="M35.37,160.62h0a27.76,27.76,0,0,0,27.84-27.85h0a2.62,2.62,0,0,0-2.65,2.41A25.22,25.22,0,0,1,37.77,158,2.63,2.63,0,0,0,35.37,160.62Z"/><circle class="cls-21" cx="35.37" cy="132.77" r="22.78"/><path class="cls-22" d="M14.48,134.67a22.85,22.85,0,0,1,22.79-22.78,21.93,21.93,0,0,1,15.06,5.82,22.16,22.16,0,0,0-17-7.72,22.85,22.85,0,0,0-22.79,22.78,22.13,22.13,0,0,0,7.72,17A21.91,21.91,0,0,1,14.48,134.67Z"/><path class="cls-13" d="M15.11,134H10.05a1.19,1.19,0,0,1-1.26-1.27h0a1.19,1.19,0,0,1,1.26-1.26h5.06a1.19,1.19,0,0,1,1.27,1.26h0A1.2,1.2,0,0,1,15.11,134Z"/><path class="cls-13" d="M60.68,134H55.62a1.2,1.2,0,0,1-1.27-1.27h0a1.19,1.19,0,0,1,1.27-1.26h5.06A1.19,1.19,0,0,1,62,132.77h0A1.2,1.2,0,0,1,60.68,134Z"/><path class="cls-13" d="M34.1,112.52v-5.06a1.2,1.2,0,0,1,1.27-1.27h0a1.19,1.19,0,0,1,1.26,1.27v5.06a1.19,1.19,0,0,1-1.26,1.27h0A1.2,1.2,0,0,1,34.1,112.52Z"/><path class="cls-13" d="M34.1,158.09V153a1.2,1.2,0,0,1,1.27-1.27h0A1.19,1.19,0,0,1,36.63,153v5.06a1.19,1.19,0,0,1-1.26,1.26h0A1.19,1.19,0,0,1,34.1,158.09Z"/><path class="cls-23" d="M35.37,131.51a1.2,1.2,0,0,1-1.27-1.27V120.12a1.27,1.27,0,1,1,2.53,0v10.12A1.19,1.19,0,0,1,35.37,131.51Z"/><path class="cls-23" d="M46.76,145.43a1.18,1.18,0,0,1-.89-.38L35.75,134.93a1.26,1.26,0,0,1,1.77-1.78l10.12,10.13a1.22,1.22,0,0,1,0,1.77A1.14,1.14,0,0,1,46.76,145.43Z"/><path class="cls-13" d="M25.87,115.05a1.27,1.27,0,1,1-1.27,1.27A1.26,1.26,0,0,1,25.87,115.05Z"/><path class="cls-13" d="M44.87,148a1.27,1.27,0,1,1-1.27,1.27A1.27,1.27,0,0,1,44.87,148Z"/><path class="cls-13" d="M18.92,122a1.27,1.27,0,1,1-1.27,1.27A1.27,1.27,0,0,1,18.92,122Z"/><path class="cls-13" d="M51.82,141a1.27,1.27,0,0,1,0,2.53,1.27,1.27,0,1,1,0-2.53Z"/><path class="cls-13" d="M44.85,115.06a1.27,1.27,0,0,1,0,2.53,1.27,1.27,0,1,1,0-2.53Z"/><path class="cls-13" d="M25.89,148a1.27,1.27,0,1,1-1.27,1.27A1.26,1.26,0,0,1,25.89,148Z"/><path class="cls-13" d="M51.82,122a1.27,1.27,0,1,1-1.27,1.26A1.26,1.26,0,0,1,51.82,122Z"/><path class="cls-13" d="M18.91,141a1.27,1.27,0,1,1-1.26,1.26A1.26,1.26,0,0,1,18.91,141Z"/><path class="cls-24" d="M35.37,129.61v-8.86a.59.59,0,0,1,.63-.63h0a.59.59,0,0,1,.63.63v8.86a.59.59,0,0,1-.63.63h0A.59.59,0,0,1,35.37,129.61Z"/><path class="cls-24" d="M45.75,144.92,37,136.19a.62.62,0,0,1,0-.89h0a.62.62,0,0,1,.89,0L46.63,144a.59.59,0,0,1,0,.88h0A.59.59,0,0,1,45.75,144.92Z"/><path class="cls-13" d="M35.37,129a3.8,3.8,0,1,1-3.8,3.79A3.79,3.79,0,0,1,35.37,129Z"/><path class="cls-13" d="M268.11,57.76c-7.32-2.54-4,7.81-2.71,11,3,7.22,6.7,14.07,10.2,21,3.21,6.38,8.39,14.06,7.92,21.51C283.69,108.61,284.48,63.43,268.11,57.76Z"/><path class="cls-13" d="M288.86,107.23c-1.06-4.11-1.05-9.62,1.35-13.36.6-.93,1.75-1.84,2.7-1.27a2.23,2.23,0,0,1,.83,1.48c.95,4,.46,12.31-4.87,13.21Z"/><path class="cls-13" d="M48.25,164.94a38.91,38.91,0,0,1,4.2,4.12,20.5,20.5,0,0,1,.77,24.54c-2,2.7-4.6,4.84-6.88,7.29a21.55,21.55,0,0,0-5.78,10.35c-.76,3.94.25,8.36,3.23,11,4.12,3.69,10.89,3,15.32-.32s6.92-8.62,8.57-13.9A48.32,48.32,0,0,0,69.91,188a31.14,31.14,0,0,0-8.34-18.14C57.63,165.87,48.25,164.94,48.25,164.94Z"/><path class="cls-13" d="M2.86,325.35c0,.14,0,.29-.08.44-1.16,6.63,2,15.44,8.94,17.54,7.56,2.3,4.45-8.45,3.28-12-2.65-8.12-5.19-13.88-2.54-22.73a.68.68,0,0,0-1.22-.57C7.86,313.18,4.09,319,2.86,325.35Z"/><path class="cls-13" d="M15,287.8A16.92,16.92,0,0,0,.13,301.23c-.26,1.39-.21,3.08.94,3.88a3.09,3.09,0,0,0,2.11.42c3.92-.43,6.24-4.55,7.56-8.27A102.91,102.91,0,0,1,15,287.8Z"/><path class="cls-5" d="M360.39,353.48l.37-.26c5.51-3.86,9.48-12.35,6.08-18.73-3.71-7-9.11,2.84-10.82,6.2-3.87,7.62-6.15,13.49-14.28,17.87a.68.68,0,0,0,.45,1.27C348.26,358.55,355.06,357.07,360.39,353.48Z"/><path class="cls-13" d="M349.51,363.85a16.93,16.93,0,0,0,20,1c1.16-.8,2.32-2,2.07-3.41a3,3,0,0,0-1.19-1.78c-3.08-2.48-7.63-1.2-11.2.5S349.51,363.85,349.51,363.85Z"/><path class="cls-5" d="M37.22,62c5-13.11,18.34-25.5,31.53-23.9a7.12,7.12,0,0,1,2.26.59c2.29,1.11,3.18,4.14,2.43,6.57a9.82,9.82,0,0,1-5.07,5.44c-5.73,3-12.5,4.75-18.07,8.39-5.75,3.75-9.62,9.67-15,13.81A25.54,25.54,0,0,1,37.22,62Z"/><path class="cls-13" d="M24.81,65.17c-5.38-8.35-6.81-21.19-.35-28a5,5,0,0,1,1.29-1,3.91,3.91,0,0,1,4.76,1.38,6.89,6.89,0,0,1,1,5.18c-.71,4.52-2.55,9.12-2.82,13.83S30.12,66,30.2,70.89A18.19,18.19,0,0,1,24.81,65.17Z"/><path class="cls-13" d="M383.87,204.83c-.66,14-9.52,29.92-22.56,32.49a7.25,7.25,0,0,1-2.32.15c-2.53-.35-4.32-2.95-4.35-5.5a9.77,9.77,0,0,1,3.12-6.74c4.53-4.61,10.41-8.4,14.58-13.58,4.31-5.35,6.14-12.18,10-17.8A25.57,25.57,0,0,1,383.87,204.83Z"/><path class="cls-5" d="M51.71,178.88c-.48,10-6.77,21.28-16,23.1a5.17,5.17,0,0,1-1.66.11,4,4,0,0,1-3.09-3.91,7,7,0,0,1,2.22-4.79c3.22-3.28,7.4-6,10.37-9.66s4.36-8.65,7.12-12.65A18.13,18.13,0,0,1,51.71,178.88Z"/><path class="cls-5" d="M394.68,197.93c7.7,6.27,13.05,18,9,26.54a5.07,5.07,0,0,1-.89,1.39,3.94,3.94,0,0,1-5,.17,6.89,6.89,0,0,1-2.53-4.63c-.72-4.52-.41-9.46-1.61-14-1.23-4.71-4.35-8.63-5.92-13.21A18.09,18.09,0,0,1,394.68,197.93Z"/><rect class="cls-11" x="83.95" y="104.96" width="21.31" height="20.35" rx="5.29"/><path class="cls-13" d="M100.87,122.81A2.12,2.12,0,0,1,99.2,122l-5.38-7.11a2.1,2.1,0,1,1,3.35-2.54l3.54,4.68,8.9-14.31a2.1,2.1,0,0,1,3.57,2.22l-10.52,16.9a2.1,2.1,0,0,1-1.69,1Z"/><path class="cls-11" d="M89.24,133.49H100a5.29,5.29,0,0,1,5.29,5.29v9.76a5.3,5.3,0,0,1-5.3,5.3H89.24a5.29,5.29,0,0,1-5.29-5.29v-9.76A5.29,5.29,0,0,1,89.24,133.49Z"/><path class="cls-13" d="M100.87,151.34a2.12,2.12,0,0,1-1.67-.83l-5.38-7.11a2.1,2.1,0,1,1,3.35-2.54l3.54,4.68,8.9-14.31a2.1,2.1,0,0,1,3.57,2.22l-10.52,16.9a2.1,2.1,0,0,1-1.69,1Z"/><rect class="cls-11" x="83.95" y="162.02" width="21.31" height="20.35" rx="5.29"/><path class="cls-13" d="M100.87,179.87A2.12,2.12,0,0,1,99.2,179l-5.38-7.11a2.1,2.1,0,1,1,3.35-2.54l3.54,4.68,8.9-14.31a2.1,2.1,0,0,1,3.57,2.23l-10.52,16.89a2.1,2.1,0,0,1-1.69,1Z"/><path class="cls-13" d="M288.6,122.81a4.25,4.25,0,1,1-4.24-4.25A4.24,4.24,0,0,1,288.6,122.81Z"/><path class="cls-13" d="M392,235.79a4.25,4.25,0,1,1-4.24-4.25A4.24,4.24,0,0,1,392,235.79Z"/><path class="cls-13" d="M19.23,165A4.25,4.25,0,1,1,15,160.75,4.24,4.24,0,0,1,19.23,165Z"/><circle class="cls-13" cx="54.44" cy="96.94" r="4.24"/></g></g></g></svg>